# Blender v3.6.18 OBJ File: 'wheel-round-axle.blend'
# www.blender.org
mtllib cottages_wagonwheel_round_with_axle.mtl
o wheel_Circle.001
v -0.099456 -0.400000 -0.500000
v -0.283227 -0.400000 -0.423880
v -0.423880 -0.400000 -0.283227
v -0.500000 -0.400000 -0.099456
v -0.500000 -0.400000 0.099456
v -0.423880 -0.400000 0.283227
v -0.283227 -0.400000 0.423880
v -0.099456 -0.400000 0.500000
v 0.099456 -0.400000 0.500000
v 0.283227 -0.400000 0.423880
v 0.423880 -0.400000 0.283227
v 0.500000 -0.400000 0.099456
v 0.500000 -0.400000 -0.099456
v 0.423880 -0.400000 -0.283227
v 0.283227 -0.400000 -0.423880
v 0.099456 -0.400000 -0.500000
v -0.078653 -0.400000 -0.395415
v -0.223985 -0.400000 -0.335217
v -0.335217 -0.400000 -0.223985
v -0.395415 -0.400000 -0.078653
v -0.395415 -0.400000 0.078653
v -0.335217 -0.400000 0.223985
v -0.223985 -0.400000 0.335217
v -0.078653 -0.400000 0.395415
v 0.078653 -0.400000 0.395415
v 0.223985 -0.400000 0.335217
v 0.335217 -0.400000 0.223985
v 0.395415 -0.400000 0.078653
v 0.395415 -0.400000 -0.078653
v 0.335217 -0.400000 -0.223985
v 0.223985 -0.400000 -0.335217
v 0.078653 -0.400000 -0.395415
v -0.033275 -0.393243 -0.396154
v -0.256595 -0.393243 -0.303652
v -0.303652 -0.393243 -0.256595
v -0.396154 -0.393243 -0.033275
v -0.396154 -0.393243 0.033275
v -0.303652 -0.393243 0.256595
v -0.256595 -0.393243 0.303652
v -0.033275 -0.393243 0.396154
v 0.033275 -0.393243 0.396154
v 0.256595 -0.393243 0.303652
v 0.303652 -0.393243 0.256595
v 0.396154 -0.393243 0.033275
v 0.396154 -0.393243 -0.033275
v 0.303652 -0.393243 -0.256595
v 0.256595 -0.393243 -0.303652
v 0.033275 -0.393243 -0.396154
v -0.035159 -0.400000 -0.117658
v -0.058335 -0.400000 -0.108058
v -0.108058 -0.400000 -0.058336
v -0.117658 -0.400000 -0.035159
v -0.117658 -0.400000 0.035159
v -0.108058 -0.400000 0.058336
v -0.058336 -0.400000 0.108058
v -0.035159 -0.400000 0.117658
v 0.035159 -0.400000 0.117658
v 0.058336 -0.400000 0.108058
v 0.108058 -0.400000 0.058336
v 0.117658 -0.400000 0.035159
v 0.117658 -0.400000 -0.035159
v 0.108058 -0.400000 -0.058336
v 0.058335 -0.400000 -0.108058
v 0.035159 -0.400000 -0.117658
v 0.000000 -0.400000 -0.000000
v -0.283227 -0.325000 -0.423880
v -0.099456 -0.325000 -0.500000
v -0.423880 -0.325000 -0.283227
v -0.500000 -0.325000 -0.099456
v -0.500000 -0.325000 0.099456
v -0.423880 -0.325000 0.283227
v -0.283227 -0.325000 0.423880
v -0.099456 -0.325000 0.500000
v 0.099456 -0.325000 0.500000
v 0.283227 -0.325000 0.423880
v 0.423880 -0.325000 0.283227
v 0.500000 -0.325000 0.099456
v 0.500000 -0.325000 -0.099456
v 0.423880 -0.325000 -0.283227
v 0.283227 -0.325000 -0.423880
v 0.099456 -0.325000 -0.500000
v -0.223985 -0.325000 -0.335217
v -0.078653 -0.325000 -0.395415
v -0.335217 -0.325000 -0.223985
v -0.395415 -0.325000 -0.078653
v -0.395415 -0.325000 0.078653
v -0.335217 -0.325000 0.223985
v -0.223985 -0.325000 0.335217
v -0.078653 -0.325000 0.395415
v 0.078653 -0.325000 0.395415
v 0.223985 -0.325000 0.335217
v 0.335217 -0.325000 0.223985
v 0.395415 -0.325000 0.078653
v 0.395415 -0.325000 -0.078653
v 0.335217 -0.325000 -0.223985
v 0.223985 -0.325000 -0.335217
v 0.078653 -0.325000 -0.395415
v -0.303652 -0.331757 -0.256595
v -0.256595 -0.331757 -0.303652
v -0.396154 -0.331757 0.033275
v -0.396154 -0.331757 -0.033275
v -0.256595 -0.331757 0.303652
v -0.303652 -0.331757 0.256595
v 0.033275 -0.331757 0.396154
v -0.033275 -0.331757 0.396154
v 0.303652 -0.331757 0.256595
v 0.256595 -0.331757 0.303652
v 0.396154 -0.331757 -0.033275
v 0.396154 -0.331757 0.033275
v 0.256595 -0.331757 -0.303652
v 0.303652 -0.331757 -0.256595
v -0.033275 -0.331757 -0.396154
v 0.033275 -0.331757 -0.396154
v -0.108058 -0.325000 -0.058336
v -0.058335 -0.325000 -0.108058
v -0.117658 -0.325000 0.035159
v -0.117658 -0.325000 -0.035159
v -0.058336 -0.325000 0.108058
v -0.108058 -0.325000 0.058336
v 0.035159 -0.325000 0.117658
v -0.035159 -0.325000 0.117658
v 0.108058 -0.325000 0.058336
v 0.058336 -0.325000 0.108058
v 0.117658 -0.325000 -0.035159
v 0.117658 -0.325000 0.035159
v 0.058335 -0.325000 -0.108058
v 0.108058 -0.325000 -0.058336
v -0.035159 -0.325000 -0.117658
v 0.035159 -0.325000 -0.117658
v 0.000000 -0.325000 -0.000000
v -0.040757 -0.499879 0.040757
v -0.040757 -0.278782 0.040757
v -0.040757 -0.499879 -0.040757
v -0.040757 -0.278782 -0.040757
v 0.040757 -0.499879 0.040757
v 0.040757 -0.278782 0.040757
v 0.040757 -0.499879 -0.040757
v 0.040757 -0.278782 -0.040757
vt 0.839951 0.430383
vt 0.839512 0.569841
vt 0.924906 0.569960
vt 0.924621 0.430300
vt 0.839951 0.430383
vt 0.924621 0.430300
vt 0.839512 0.569841
vt 0.924906 0.569960
vt 0.839951 0.430383
vt 0.924621 0.430300
vt 0.839512 0.569841
vt 0.924906 0.569960
vt 0.839951 0.430383
vt 0.924621 0.430300
vt 0.839512 0.569841
vt 0.924906 0.569960
vt 0.839951 0.430383
vt 0.924621 0.430300
vt 0.839512 0.569841
vt 0.924906 0.569960
vt 0.839951 0.430383
vt 0.924621 0.430300
vt 0.839512 0.569841
vt 0.924906 0.569960
vt 0.839951 0.430383
vt 0.924621 0.430300
vt 0.839512 0.569841
vt 0.924906 0.569960
vt 0.839951 0.430383
vt 0.924621 0.430300
vt 0.839512 0.569841
vt 0.924906 0.569960
vt 0.482106 0.145502
vt 0.482106 0.148873
vt 0.495170 0.149115
vt 0.495170 0.146048
vt 0.515710 0.163213
vt 0.518193 0.160730
vt 0.509303 0.151054
vt 0.506607 0.154108
vt 0.518193 0.133645
vt 0.515710 0.131162
vt 0.506536 0.140697
vt 0.509088 0.143178
vt 0.488626 0.131162
vt 0.486142 0.133645
vt 0.495534 0.142676
vt 0.497871 0.140553
vt 0.486142 0.160730
vt 0.488626 0.163213
vt 0.497585 0.153392
vt 0.495104 0.151627
vt 0.500483 0.167250
vt 0.503853 0.167250
vt 0.503808 0.155904
vt 0.500384 0.154758
vt 0.833213 0.527988
vt 0.833213 0.472012
vt 0.584902 0.474629
vt 0.584902 0.525371
vt 0.503853 0.127125
vt 0.500483 0.127125
vt 0.500599 0.139832
vt 0.504095 0.139259
vt 0.474629 0.415098
vt 0.457905 0.422025
vt 0.500000 0.500000
vt 0.577975 0.457905
vt 0.542095 0.422025
vt 0.525371 0.415098
vt 0.542095 0.577975
vt 0.577975 0.542095
vt 0.474629 0.584902
vt 0.525371 0.584902
vt 0.422025 0.542095
vt 0.457905 0.577975
vt 0.415098 0.474629
vt 0.415098 0.525371
vt 0.422025 0.457905
vt 0.839951 0.430383
vt 0.924621 0.430300
vt 0.924906 0.569960
vt 0.839512 0.569841
vt 0.924621 0.430300
vt 0.839951 0.430383
vt 0.924906 0.569960
vt 0.839512 0.569841
vt 0.924621 0.430300
vt 0.839951 0.430383
vt 0.924906 0.569960
vt 0.839512 0.569841
vt 0.924621 0.430300
vt 0.839951 0.430383
vt 0.924906 0.569960
vt 0.839512 0.569841
vt 0.924621 0.430300
vt 0.839951 0.430383
vt 0.924906 0.569960
vt 0.839512 0.569841
vt 0.924621 0.430300
vt 0.839951 0.430383
vt 0.924906 0.569960
vt 0.839512 0.569841
vt 0.924621 0.430300
vt 0.839951 0.430383
vt 0.924906 0.569960
vt 0.839512 0.569841
vt 0.924621 0.430300
vt 0.839951 0.430383
vt 0.924906 0.569960
vt 0.839512 0.569841
vt 0.482106 0.145502
vt 0.495170 0.146048
vt 0.495170 0.149115
vt 0.482106 0.148873
vt 0.515710 0.163213
vt 0.506607 0.154108
vt 0.509303 0.151054
vt 0.518193 0.160730
vt 0.518193 0.133645
vt 0.509088 0.143178
vt 0.506536 0.140697
vt 0.515710 0.131162
vt 0.488626 0.131162
vt 0.497871 0.140553
vt 0.495534 0.142676
vt 0.486142 0.133645
vt 0.486142 0.160730
vt 0.495104 0.151627
vt 0.497585 0.153392
vt 0.488626 0.163213
vt 0.500483 0.167250
vt 0.500384 0.154758
vt 0.503808 0.155904
vt 0.503853 0.167250
vt 0.833213 0.527988
vt 0.584902 0.525371
vt 0.584902 0.474629
vt 0.833213 0.472012
vt 0.503853 0.127125
vt 0.504095 0.139259
vt 0.500599 0.139832
vt 0.500483 0.127125
vt 0.474629 0.415098
vt 0.500000 0.500000
vt 0.457905 0.422025
vt 0.577975 0.457905
vt 0.542095 0.422025
vt 0.525371 0.415098
vt 0.542095 0.577975
vt 0.577975 0.542095
vt 0.474629 0.584902
vt 0.525371 0.584902
vt 0.422025 0.542095
vt 0.457905 0.577975
vt 0.415098 0.474629
vt 0.415098 0.525371
vt 0.422025 0.457905
vt 0.494380 0.471992
vt 0.508472 0.471992
vt 0.508472 0.486084
vt 0.494380 0.486084
vt 0.508472 0.500177
vt 0.494380 0.500177
vt 0.508472 0.514269
vt 0.494380 0.514269
vt 0.508472 0.528362
vt 0.494380 0.528362
vt 0.480287 0.500177
vt 0.480287 0.514269
vt 0.495000 0.514247
vt 0.508472 0.500000
vt 0.495000 0.500000
vn 0.0000 -1.0000 -0.0000
vn -0.0243 -0.9997 0.0000
vn 0.0172 -0.9997 -0.0172
vn 0.0172 -0.9997 0.0172
vn -0.0172 -0.9997 0.0172
vn -0.0172 -0.9997 -0.0172
vn 0.0000 -0.9997 -0.0243
vn 0.0243 -0.9997 0.0000
vn 0.0000 -0.9997 0.0243
vn 0.0000 1.0000 -0.0000
vn -0.0243 0.9997 0.0000
vn 0.0172 0.9997 -0.0172
vn 0.0172 0.9997 0.0172
vn -0.0172 0.9997 0.0172
vn -0.0172 0.9997 -0.0172
vn 0.0000 0.9997 -0.0243
vn 0.0243 0.9997 0.0000
vn 0.0000 0.9997 0.0243
vn 0.0068 0.0000 -1.0000
vn 0.3827 0.0000 -0.9239
vn 0.0068 0.0000 1.0000
vn 0.0000 0.0000 -1.0000
vn 1.0000 0.0000 0.0068
vn 0.3827 0.0000 0.9239
vn -1.0000 0.0000 0.0068
vn -0.9239 0.0000 -0.3827
vn 0.9239 0.0000 0.3827
vn -0.9239 0.0000 0.3827
vn -0.3827 0.0000 0.9239
vn 0.9239 0.0000 -0.3827
vn -0.3827 0.0000 -0.9239
vn -0.7071 0.0000 -0.7071
vn -0.0068 0.0000 1.0000
vn -0.0068 0.0000 -1.0000
vn -1.0000 0.0000 0.0000
vn -0.7023 0.0000 -0.7119
vn 0.7119 0.0000 0.7023
vn -0.7071 0.0000 0.7071
vn 0.7119 0.0000 -0.7023
vn 1.0000 0.0000 0.0000
vn -0.7023 0.0000 0.7119
vn 0.7071 0.0000 -0.7071
vn 0.0000 0.0000 1.0000
vn 0.7023 0.0000 0.7119
vn -0.7119 0.0000 -0.7023
vn 0.7071 0.0000 0.7071
vn -0.7119 0.0000 0.7023
vn 0.7023 0.0000 -0.7119
vn -1.0000 0.0000 -0.0068
vn 1.0000 0.0000 -0.0068
usemtl Material.001
s off
f 18/1/1 19/2/1 3/3/1 2/4/1
f 19/2/1 20/5/1 4/6/1 3/3/1
f 20/5/1 21/7/1 5/8/1 4/6/1
f 21/7/1 22/9/1 6/10/1 5/8/1
f 22/9/1 23/11/1 7/12/1 6/10/1
f 23/11/1 24/13/1 8/14/1 7/12/1
f 24/13/1 25/15/1 9/16/1 8/14/1
f 25/15/1 26/17/1 10/18/1 9/16/1
f 26/17/1 27/19/1 11/20/1 10/18/1
f 27/19/1 28/21/1 12/22/1 11/20/1
f 28/21/1 29/23/1 13/24/1 12/22/1
f 29/23/1 30/25/1 14/26/1 13/24/1
f 30/25/1 31/27/1 15/28/1 14/26/1
f 31/27/1 32/29/1 16/30/1 15/28/1
f 32/29/1 17/31/1 1/32/1 16/30/1
f 17/31/1 18/1/1 2/4/1 1/32/1
f 37/33/2 36/34/2 52/35/2 53/36/2
f 47/37/3 46/38/3 62/39/3 63/40/3
f 43/41/4 42/42/4 58/43/4 59/44/4
f 39/45/5 38/46/5 54/47/5 55/48/5
f 35/49/6 34/50/6 50/51/6 51/52/6
f 33/53/7 48/54/7 64/55/7 49/56/7
f 45/57/8 44/58/8 60/59/8 61/60/8
f 41/61/9 40/62/9 56/63/9 57/64/9
f 56/65/1 55/66/1 65/67/1
f 59/68/1 58/69/1 65/67/1
f 58/69/1 57/70/1 65/67/1
f 61/60/1 60/59/1 65/67/1
f 60/59/1 59/68/1 65/67/1
f 63/71/1 62/72/1 65/67/1
f 62/72/1 61/60/1 65/67/1
f 49/73/1 64/74/1 65/67/1
f 51/75/1 50/76/1 65/67/1
f 64/74/1 63/71/1 65/67/1
f 53/77/1 52/78/1 65/67/1
f 50/76/1 49/73/1 65/67/1
f 52/78/1 51/75/1 65/67/1
f 55/66/1 54/79/1 65/67/1
f 54/79/1 53/77/1 65/67/1
f 57/70/1 56/65/1 65/67/1
f 82/80/10 66/81/10 68/82/10 84/83/10
f 84/83/10 68/82/10 69/84/10 85/85/10
f 85/85/10 69/84/10 70/86/10 86/87/10
f 86/87/10 70/86/10 71/88/10 87/89/10
f 87/89/10 71/88/10 72/90/10 88/91/10
f 88/91/10 72/90/10 73/92/10 89/93/10
f 89/93/10 73/92/10 74/94/10 90/95/10
f 90/95/10 74/94/10 75/96/10 91/97/10
f 91/97/10 75/96/10 76/98/10 92/99/10
f 92/99/10 76/98/10 77/100/10 93/101/10
f 93/101/10 77/100/10 78/102/10 94/103/10
f 94/103/10 78/102/10 79/104/10 95/105/10
f 95/105/10 79/104/10 80/106/10 96/107/10
f 96/107/10 80/106/10 81/108/10 97/109/10
f 97/109/10 81/108/10 67/110/10 83/111/10
f 83/111/10 67/110/10 66/81/10 82/80/10
f 100/112/11 116/113/11 117/114/11 101/115/11
f 110/116/12 126/117/12 127/118/12 111/119/12
f 106/120/13 122/121/13 123/122/13 107/123/13
f 102/124/14 118/125/14 119/126/14 103/127/14
f 98/128/15 114/129/15 115/130/15 99/131/15
f 112/132/16 128/133/16 129/134/16 113/135/16
f 108/136/17 124/137/17 125/138/17 109/139/17
f 104/140/18 120/141/18 121/142/18 105/143/18
f 121/144/10 130/145/10 118/146/10
f 122/147/10 130/145/10 123/148/10
f 123/148/10 130/145/10 120/149/10
f 124/137/10 130/145/10 125/138/10
f 125/138/10 130/145/10 122/147/10
f 126/150/10 130/145/10 127/151/10
f 127/151/10 130/145/10 124/137/10
f 128/152/10 130/145/10 129/153/10
f 114/154/10 130/145/10 115/155/10
f 129/153/10 130/145/10 126/150/10
f 116/156/10 130/145/10 117/157/10
f 115/155/10 130/145/10 128/152/10
f 117/157/10 130/145/10 114/154/10
f 118/146/10 130/145/10 119/158/10
f 119/158/10 130/145/10 116/156/10
f 120/149/10 130/145/10 121/144/10
f 61/60/19 124/137/19 108/136/19 45/57/19
f 16/30/20 81/108/20 80/106/20 15/28/20
f 44/58/21 109/139/21 125/138/21 60/59/21
f 1/32/22 67/110/22 81/108/22 16/30/22
f 57/64/23 120/141/23 104/140/23 41/61/23
f 17/31/24 83/111/24 82/80/24 18/1/24
f 40/62/25 105/143/25 121/142/25 56/63/25
f 52/78/26 117/157/26 114/154/26 51/75/26
f 19/2/27 84/83/27 85/85/27 20/5/27
f 54/79/28 119/158/28 116/156/28 53/77/28
f 56/65/29 121/144/29 118/146/29 55/66/29
f 21/7/30 86/87/30 87/89/30 22/9/30
f 58/69/24 123/148/24 120/149/24 57/70/24
f 60/59/27 125/138/27 122/147/27 59/68/27
f 23/11/20 88/91/20 89/93/20 24/13/20
f 62/72/30 127/151/30 124/137/30 61/60/30
f 64/74/20 129/153/20 126/150/20 63/71/20
f 25/15/31 90/95/31 91/97/31 26/17/31
f 50/76/31 115/155/31 128/152/31 49/73/31
f 27/19/26 92/99/26 93/101/26 28/21/26
f 2/4/31 66/81/31 67/110/31 1/32/31
f 3/3/32 68/82/32 66/81/32 2/4/32
f 53/36/33 116/113/33 100/112/33 37/33/33
f 29/23/28 94/103/28 95/105/28 30/25/28
f 4/6/26 69/84/26 68/82/26 3/3/26
f 36/34/34 101/115/34 117/114/34 52/35/34
f 5/8/35 70/86/35 69/84/35 4/6/35
f 63/40/36 126/117/36 110/116/36 47/37/36
f 31/27/29 96/107/29 97/109/29 32/29/29
f 6/10/28 71/88/28 70/86/28 5/8/28
f 46/38/37 111/119/37 127/118/37 62/39/37
f 7/12/38 72/90/38 71/88/38 6/10/38
f 59/44/39 122/121/39 106/120/39 43/41/39
f 20/5/40 85/85/40 86/87/40 21/7/40
f 8/14/29 73/92/29 72/90/29 7/12/29
f 42/42/41 107/123/41 123/122/41 58/43/41
f 22/9/42 87/89/42 88/91/42 23/11/42
f 9/16/43 74/94/43 73/92/43 8/14/43
f 55/48/44 118/125/44 102/124/44 39/45/44
f 24/13/22 89/93/22 90/95/22 25/15/22
f 10/18/24 75/96/24 74/94/24 9/16/24
f 38/46/45 103/127/45 119/126/45 54/47/45
f 26/17/32 91/97/32 92/99/32 27/19/32
f 11/20/46 76/98/46 75/96/46 10/18/46
f 51/52/47 114/129/47 98/128/47 35/49/47
f 28/21/35 93/101/35 94/103/35 29/23/35
f 12/22/27 77/100/27 76/98/27 11/20/27
f 34/50/48 99/131/48 115/130/48 50/51/48
f 30/25/38 95/105/38 96/107/38 31/27/38
f 13/24/40 78/102/40 77/100/40 12/22/40
f 49/56/49 128/133/49 112/132/49 33/53/49
f 32/29/43 97/109/43 83/111/43 17/31/43
f 14/26/30 79/104/30 78/102/30 13/24/30
f 48/54/50 113/135/50 129/134/50 64/55/50
f 18/1/46 82/80/46 84/83/46 19/2/46
f 15/28/42 80/106/42 79/104/42 14/26/42
f 131/159/35 132/160/35 134/161/35 133/162/35
f 133/162/22 134/161/22 138/163/22 137/164/22
f 137/164/40 138/163/40 136/165/40 135/166/40
f 135/166/43 136/165/43 132/167/43 131/168/43
f 133/169/1 137/164/1 135/166/1 131/170/1
f 132/171/10 136/165/10 138/172/10 134/173/10
