# Blender 4.0.2
# www.blender.org
mtllib cottages_wagonwheel.mtl
o wheel
v -0.099456 -0.500000 -0.500000
v -0.283227 -0.500000 -0.423880
v -0.423880 -0.500000 -0.283227
v -0.500000 -0.500000 -0.099456
v -0.500000 -0.500000 0.099456
v -0.423880 -0.500000 0.283227
v -0.283227 -0.500000 0.423880
v -0.099456 -0.500000 0.500000
v 0.099456 -0.500000 0.500000
v 0.283227 -0.500000 0.423880
v 0.423880 -0.500000 0.283227
v 0.500000 -0.500000 0.099456
v 0.500000 -0.500000 -0.099456
v 0.423880 -0.500000 -0.283227
v 0.283227 -0.500000 -0.423880
v 0.099456 -0.500000 -0.500000
v -0.078653 -0.500000 -0.395415
v -0.223985 -0.500000 -0.335217
v -0.335217 -0.500000 -0.223985
v -0.395415 -0.500000 -0.078653
v -0.395415 -0.500000 0.078653
v -0.335217 -0.500000 0.223985
v -0.223985 -0.500000 0.335217
v -0.078653 -0.500000 0.395415
v 0.078653 -0.500000 0.395415
v 0.223985 -0.500000 0.335217
v 0.335217 -0.500000 0.223985
v 0.395415 -0.500000 0.078653
v 0.395415 -0.500000 -0.078653
v 0.335217 -0.500000 -0.223985
v 0.223985 -0.500000 -0.335217
v 0.078653 -0.500000 -0.395415
v -0.033275 -0.493243 -0.396154
v -0.256595 -0.493243 -0.303652
v -0.303652 -0.493243 -0.256595
v -0.396154 -0.493243 -0.033275
v -0.396154 -0.493243 0.033275
v -0.303652 -0.493243 0.256595
v -0.256595 -0.493243 0.303652
v -0.033275 -0.493243 0.396154
v 0.033275 -0.493243 0.396154
v 0.256595 -0.493243 0.303652
v 0.303652 -0.493243 0.256595
v 0.396154 -0.493243 0.033275
v 0.396154 -0.493243 -0.033275
v 0.303652 -0.493243 -0.256595
v 0.256595 -0.493243 -0.303652
v 0.033275 -0.493243 -0.396154
v -0.035159 -0.500000 -0.117658
v -0.058335 -0.500000 -0.108058
v -0.108058 -0.500000 -0.058336
v -0.117658 -0.500000 -0.035159
v -0.117658 -0.500000 0.035159
v -0.108058 -0.500000 0.058336
v -0.058336 -0.500000 0.108058
v -0.035159 -0.500000 0.117658
v 0.035159 -0.500000 0.117658
v 0.058336 -0.500000 0.108058
v 0.108058 -0.500000 0.058336
v 0.117658 -0.500000 0.035159
v 0.117658 -0.500000 -0.035159
v 0.108058 -0.500000 -0.058336
v 0.058335 -0.500000 -0.108058
v 0.035159 -0.500000 -0.117658
v 0.000000 -0.500000 -0.000000
v -0.283227 -0.425000 -0.423880
v -0.099456 -0.425000 -0.500000
v -0.423880 -0.425000 -0.283227
v -0.500000 -0.425000 -0.099456
v -0.500000 -0.425000 0.099456
v -0.423880 -0.425000 0.283227
v -0.283227 -0.425000 0.423880
v -0.099456 -0.425000 0.500000
v 0.099456 -0.425000 0.500000
v 0.283227 -0.425000 0.423880
v 0.423880 -0.425000 0.283227
v 0.500000 -0.425000 0.099456
v 0.500000 -0.425000 -0.099456
v 0.423880 -0.425000 -0.283227
v 0.283227 -0.425000 -0.423880
v 0.099456 -0.425000 -0.500000
v -0.223985 -0.425000 -0.335217
v -0.078653 -0.425000 -0.395415
v -0.335217 -0.425000 -0.223985
v -0.395415 -0.425000 -0.078653
v -0.395415 -0.425000 0.078653
v -0.335217 -0.425000 0.223985
v -0.223985 -0.425000 0.335217
v -0.078653 -0.425000 0.395415
v 0.078653 -0.425000 0.395415
v 0.223985 -0.425000 0.335217
v 0.335217 -0.425000 0.223985
v 0.395415 -0.425000 0.078653
v 0.395415 -0.425000 -0.078653
v 0.335217 -0.425000 -0.223985
v 0.223985 -0.425000 -0.335217
v 0.078653 -0.425000 -0.395415
v -0.303652 -0.431757 -0.256595
v -0.256595 -0.431757 -0.303652
v -0.396154 -0.431757 0.033275
v -0.396154 -0.431757 -0.033275
v -0.256595 -0.431757 0.303652
v -0.303652 -0.431757 0.256595
v 0.033275 -0.431757 0.396154
v -0.033275 -0.431757 0.396154
v 0.303652 -0.431757 0.256595
v 0.256595 -0.431757 0.303652
v 0.396154 -0.431757 -0.033275
v 0.396154 -0.431757 0.033275
v 0.256595 -0.431757 -0.303652
v 0.303652 -0.431757 -0.256595
v -0.033275 -0.431757 -0.396154
v 0.033275 -0.431757 -0.396154
v -0.108058 -0.425000 -0.058336
v -0.058335 -0.425000 -0.108058
v -0.117658 -0.425000 0.035159
v -0.117658 -0.425000 -0.035159
v -0.058336 -0.425000 0.108058
v -0.108058 -0.425000 0.058336
v 0.035159 -0.425000 0.117658
v -0.035159 -0.425000 0.117658
v 0.108058 -0.425000 0.058336
v 0.058336 -0.425000 0.108058
v 0.117658 -0.425000 -0.035159
v 0.117658 -0.425000 0.035159
v 0.058335 -0.425000 -0.108058
v 0.108058 -0.425000 -0.058336
v -0.035159 -0.425000 -0.117658
v 0.035159 -0.425000 -0.117658
v 0.000000 -0.425000 -0.000000
vn -0.0000 -1.0000 -0.0000
vn -0.0243 -0.9997 -0.0000
vn 0.0172 -0.9997 -0.0172
vn 0.0172 -0.9997 0.0172
vn -0.0172 -0.9997 0.0172
vn -0.0172 -0.9997 -0.0172
vn -0.0000 -0.9997 -0.0243
vn 0.0243 -0.9997 -0.0000
vn -0.0000 -0.9997 0.0243
vn -0.0000 1.0000 -0.0000
vn -0.0243 0.9997 -0.0000
vn 0.0172 0.9997 -0.0172
vn 0.0172 0.9997 0.0172
vn -0.0172 0.9997 0.0172
vn -0.0172 0.9997 -0.0172
vn -0.0000 0.9997 -0.0243
vn 0.0243 0.9997 -0.0000
vn -0.0000 0.9997 0.0243
vn 0.0068 -0.0000 -1.0000
vn 0.3827 -0.0000 -0.9239
vn 0.0068 -0.0000 1.0000
vn -0.0000 -0.0000 -1.0000
vn 1.0000 -0.0000 0.0068
vn 0.3827 -0.0000 0.9239
vn -1.0000 -0.0000 0.0068
vn -0.9239 -0.0000 -0.3827
vn 0.9239 -0.0000 0.3827
vn -0.9239 -0.0000 0.3827
vn -0.3827 -0.0000 0.9239
vn 0.9239 -0.0000 -0.3827
vn -0.3827 -0.0000 -0.9239
vn -0.7071 -0.0000 -0.7071
vn -0.0068 -0.0000 1.0000
vn -0.0068 -0.0000 -1.0000
vn -1.0000 -0.0000 -0.0000
vn -0.7023 -0.0000 -0.7119
vn 0.7119 -0.0000 0.7023
vn -0.7071 -0.0000 0.7071
vn 0.7119 -0.0000 -0.7023
vn 1.0000 -0.0000 -0.0000
vn -0.7023 -0.0000 0.7119
vn 0.7071 -0.0000 -0.7071
vn -0.0000 -0.0000 1.0000
vn 0.7023 -0.0000 0.7119
vn -0.7119 -0.0000 -0.7023
vn 0.7071 -0.0000 0.7071
vn -0.7119 -0.0000 0.7023
vn 0.7023 -0.0000 -0.7119
vn -1.0000 -0.0000 -0.0068
vn 1.0000 -0.0000 -0.0068
vt 0.839951 0.430383
vt 0.839512 0.569841
vt 0.924906 0.569960
vt 0.924621 0.430300
vt 0.482106 0.145502
vt 0.482106 0.148873
vt 0.495170 0.149115
vt 0.495170 0.146048
vt 0.515710 0.163213
vt 0.518193 0.160730
vt 0.509303 0.151054
vt 0.506607 0.154108
vt 0.518193 0.133645
vt 0.515710 0.131162
vt 0.506536 0.140697
vt 0.509088 0.143178
vt 0.488626 0.131162
vt 0.486142 0.133645
vt 0.495534 0.142676
vt 0.497871 0.140553
vt 0.486142 0.160730
vt 0.488626 0.163213
vt 0.497585 0.153392
vt 0.495104 0.151627
vt 0.500483 0.167250
vt 0.503853 0.167250
vt 0.503808 0.155904
vt 0.500384 0.154758
vt 0.833213 0.527988
vt 0.833213 0.472012
vt 0.584902 0.474629
vt 0.584902 0.525371
vt 0.503853 0.127125
vt 0.500483 0.127125
vt 0.500599 0.139832
vt 0.504095 0.139259
vt 0.474629 0.415098
vt 0.457905 0.422025
vt 0.500000 0.500000
vt 0.577975 0.457905
vt 0.542095 0.422025
vt 0.525371 0.415098
vt 0.542095 0.577975
vt 0.577975 0.542095
vt 0.474629 0.584902
vt 0.525371 0.584902
vt 0.422025 0.542095
vt 0.457905 0.577975
vt 0.415098 0.474629
vt 0.415098 0.525371
vt 0.422025 0.457905
s 0
usemtl Material.001
f 18/1/1 19/2/1 3/3/1 2/4/1
f 19/2/1 20/1/1 4/4/1 3/3/1
f 20/1/1 21/2/1 5/3/1 4/4/1
f 21/2/1 22/1/1 6/4/1 5/3/1
f 22/1/1 23/2/1 7/3/1 6/4/1
f 23/2/1 24/1/1 8/4/1 7/3/1
f 24/1/1 25/2/1 9/3/1 8/4/1
f 25/2/1 26/1/1 10/4/1 9/3/1
f 26/1/1 27/2/1 11/3/1 10/4/1
f 27/2/1 28/1/1 12/4/1 11/3/1
f 28/1/1 29/2/1 13/3/1 12/4/1
f 29/2/1 30/1/1 14/4/1 13/3/1
f 30/1/1 31/2/1 15/3/1 14/4/1
f 31/2/1 32/1/1 16/4/1 15/3/1
f 32/1/1 17/2/1 1/3/1 16/4/1
f 17/2/1 18/1/1 2/4/1 1/3/1
f 37/5/2 36/6/2 52/7/2 53/8/2
f 47/9/3 46/10/3 62/11/3 63/12/3
f 43/13/4 42/14/4 58/15/4 59/16/4
f 39/17/5 38/18/5 54/19/5 55/20/5
f 35/21/6 34/22/6 50/23/6 51/24/6
f 33/25/7 48/26/7 64/27/7 49/28/7
f 45/29/8 44/30/8 60/31/8 61/32/8
f 41/33/9 40/34/9 56/35/9 57/36/9
f 56/37/1 55/38/1 65/39/1
f 59/40/1 58/41/1 65/39/1
f 58/41/1 57/42/1 65/39/1
f 61/32/1 60/31/1 65/39/1
f 60/31/1 59/40/1 65/39/1
f 63/43/1 62/44/1 65/39/1
f 62/44/1 61/32/1 65/39/1
f 49/45/1 64/46/1 65/39/1
f 51/47/1 50/48/1 65/39/1
f 64/46/1 63/43/1 65/39/1
f 53/49/1 52/50/1 65/39/1
f 50/48/1 49/45/1 65/39/1
f 52/50/1 51/47/1 65/39/1
f 55/38/1 54/51/1 65/39/1
f 54/51/1 53/49/1 65/39/1
f 57/42/1 56/37/1 65/39/1
f 82/1/10 66/4/10 68/3/10 84/2/10
f 84/2/10 68/3/10 69/4/10 85/1/10
f 85/1/10 69/4/10 70/3/10 86/2/10
f 86/2/10 70/3/10 71/4/10 87/1/10
f 87/1/10 71/4/10 72/3/10 88/2/10
f 88/2/10 72/3/10 73/4/10 89/1/10
f 89/1/10 73/4/10 74/3/10 90/2/10
f 90/2/10 74/3/10 75/4/10 91/1/10
f 91/1/10 75/4/10 76/3/10 92/2/10
f 92/2/10 76/3/10 77/4/10 93/1/10
f 93/1/10 77/4/10 78/3/10 94/2/10
f 94/2/10 78/3/10 79/4/10 95/1/10
f 95/1/10 79/4/10 80/3/10 96/2/10
f 96/2/10 80/3/10 81/4/10 97/1/10
f 97/1/10 81/4/10 67/3/10 83/2/10
f 83/2/10 67/3/10 66/4/10 82/1/10
f 100/5/11 116/8/11 117/7/11 101/6/11
f 110/9/12 126/12/12 127/11/12 111/10/12
f 106/13/13 122/16/13 123/15/13 107/14/13
f 102/17/14 118/20/14 119/19/14 103/18/14
f 98/21/15 114/24/15 115/23/15 99/22/15
f 112/25/16 128/28/16 129/27/16 113/26/16
f 108/29/17 124/32/17 125/31/17 109/30/17
f 104/33/18 120/36/18 121/35/18 105/34/18
f 121/37/10 130/39/10 118/38/10
f 122/40/10 130/39/10 123/41/10
f 123/41/10 130/39/10 120/42/10
f 124/32/10 130/39/10 125/31/10
f 125/31/10 130/39/10 122/40/10
f 126/43/10 130/39/10 127/44/10
f 127/44/10 130/39/10 124/32/10
f 128/45/10 130/39/10 129/46/10
f 114/47/10 130/39/10 115/48/10
f 129/46/10 130/39/10 126/43/10
f 116/49/10 130/39/10 117/50/10
f 115/48/10 130/39/10 128/45/10
f 117/50/10 130/39/10 114/47/10
f 118/38/10 130/39/10 119/51/10
f 119/51/10 130/39/10 116/49/10
f 120/42/10 130/39/10 121/37/10
f 61/32/19 124/32/19 108/29/19 45/29/19
f 16/4/20 81/4/20 80/3/20 15/3/20
f 44/30/21 109/30/21 125/31/21 60/31/21
f 1/3/22 67/3/22 81/4/22 16/4/22
f 57/36/23 120/36/23 104/33/23 41/33/23
f 17/2/24 83/2/24 82/1/24 18/1/24
f 40/34/25 105/34/25 121/35/25 56/35/25
f 52/50/26 117/50/26 114/47/26 51/47/26
f 19/2/27 84/2/27 85/1/27 20/1/27
f 54/51/28 119/51/28 116/49/28 53/49/28
f 56/37/29 121/37/29 118/38/29 55/38/29
f 21/2/30 86/2/30 87/1/30 22/1/30
f 58/41/24 123/41/24 120/42/24 57/42/24
f 60/31/27 125/31/27 122/40/27 59/40/27
f 23/2/20 88/2/20 89/1/20 24/1/20
f 62/44/30 127/44/30 124/32/30 61/32/30
f 64/46/20 129/46/20 126/43/20 63/43/20
f 25/2/31 90/2/31 91/1/31 26/1/31
f 50/48/31 115/48/31 128/45/31 49/45/31
f 27/2/26 92/2/26 93/1/26 28/1/26
f 2/4/31 66/4/31 67/3/31 1/3/31
f 3/3/32 68/3/32 66/4/32 2/4/32
f 53/8/33 116/8/33 100/5/33 37/5/33
f 29/2/28 94/2/28 95/1/28 30/1/28
f 4/4/26 69/4/26 68/3/26 3/3/26
f 36/6/34 101/6/34 117/7/34 52/7/34
f 5/3/35 70/3/35 69/4/35 4/4/35
f 63/12/36 126/12/36 110/9/36 47/9/36
f 31/2/29 96/2/29 97/1/29 32/1/29
f 6/4/28 71/4/28 70/3/28 5/3/28
f 46/10/37 111/10/37 127/11/37 62/11/37
f 7/3/38 72/3/38 71/4/38 6/4/38
f 59/16/39 122/16/39 106/13/39 43/13/39
f 20/1/40 85/1/40 86/2/40 21/2/40
f 8/4/29 73/4/29 72/3/29 7/3/29
f 42/14/41 107/14/41 123/15/41 58/15/41
f 22/1/42 87/1/42 88/2/42 23/2/42
f 9/3/43 74/3/43 73/4/43 8/4/43
f 55/20/44 118/20/44 102/17/44 39/17/44
f 24/1/22 89/1/22 90/2/22 25/2/22
f 10/4/24 75/4/24 74/3/24 9/3/24
f 38/18/45 103/18/45 119/19/45 54/19/45
f 26/1/32 91/1/32 92/2/32 27/2/32
f 11/3/46 76/3/46 75/4/46 10/4/46
f 51/24/47 114/24/47 98/21/47 35/21/47
f 28/1/35 93/1/35 94/2/35 29/2/35
f 12/4/27 77/4/27 76/3/27 11/3/27
f 34/22/48 99/22/48 115/23/48 50/23/48
f 30/1/38 95/1/38 96/2/38 31/2/38
f 13/3/40 78/3/40 77/4/40 12/4/40
f 49/28/49 128/28/49 112/25/49 33/25/49
f 32/1/43 97/1/43 83/2/43 17/2/43
f 14/4/30 79/4/30 78/3/30 13/3/30
f 48/26/50 113/26/50 129/27/50 64/27/50
f 18/1/46 82/1/46 84/2/46 19/2/46
f 15/3/42 80/3/42 79/4/42 14/4/42
